<mxfile host="app.diagrams.net" modified="2024-03-19T12:00:00.000Z" agent="Mozilla/5.0" version="21.6.6" type="device">
  <diagram name="Auth Architecture" id="auth_architecture">
    <mxGraphModel dx="1422" dy="762" grid="1" gridSize="10" guides="1" tooltips="1" connect="1" arrows="1" fold="1" page="1" pageScale="1" pageWidth="827" pageHeight="1169" math="0" shadow="0">
      <root>
        <mxCell id="0" />
        <mxCell id="1" parent="0" />
        
        <!-- UI Layer -->
        <mxCell id="ui_layer" value="UI Layer" style="swimlane;fontStyle=1;align=center;verticalAlign=top;childLayout=stackLayout;horizontal=1;startSize=30;horizontalStack=0;resizeParent=1;resizeParentMax=0;resizeLast=0;collapsible=1;marginBottom=0;" vertex="1" parent="1">
          <mxGeometry x="40" y="40" width="200" height="200" as="geometry" />
        </mxCell>
        <mxCell id="signin_screen" value="SignInScreen&#xa;+ UI form&#xa;+ Google button" style="rounded=1;whiteSpace=wrap;html=1;" vertex="1" parent="ui_layer">
          <mxGeometry x="10" y="40" width="180" height="60" as="geometry" />
        </mxCell>
        <mxCell id="signup_screen" value="SignUpScreen&#xa;+ Registration form&#xa;+ Google button" style="rounded=1;whiteSpace=wrap;html=1;" vertex="1" parent="ui_layer">
          <mxGeometry x="10" y="110" width="180" height="60" as="geometry" />
        </mxCell>
        <mxCell id="homepage" value="HomePage&#xa;+ Display user data&#xa;+ Logout" style="rounded=1;whiteSpace=wrap;html=1;" vertex="1" parent="ui_layer">
          <mxGeometry x="10" y="180" width="180" height="60" as="geometry" />
        </mxCell>
        <mxCell id="splash_screen" value="SplashScreen&#xa;+ Shows loader&#xa;+ Observes authState" style="rounded=1;whiteSpace=wrap;html=1;" vertex="1" parent="ui_layer">
          <mxGeometry x="10" y="250" width="180" height="60" as="geometry" />
        </mxCell>

        <!-- Navigation Layer -->
        <mxCell id="nav_layer" value="Navigation Layer" style="swimlane;fontStyle=1;align=center;verticalAlign=top;childLayout=stackLayout;horizontal=1;startSize=30;horizontalStack=0;resizeParent=1;resizeParentMax=0;resizeLast=0;collapsible=1;marginBottom=0;" vertex="1" parent="1">
          <mxGeometry x="280" y="40" width="200" height="200" as="geometry" />
        </mxCell>
        <mxCell id="auth_navigation" value="AuthNavigation&#xa;+ navigateToHome()&#xa;+ navigateToSignUp()&#xa;+ navigateToSignIn()&#xa;+ handleAuthState(state)" style="rounded=1;whiteSpace=wrap;html=1;" vertex="1" parent="nav_layer">
          <mxGeometry x="10" y="40" width="180" height="100" as="geometry" />
        </mxCell>

        <!-- ViewModel Layer -->
        <mxCell id="vm_layer" value="ViewModel Layer" style="swimlane;fontStyle=1;align=center;verticalAlign=top;childLayout=stackLayout;horizontal=1;startSize=30;horizontalStack=0;resizeParent=1;resizeParentMax=0;resizeLast=0;collapsible=1;marginBottom=0;" vertex="1" parent="1">
          <mxGeometry x="520" y="40" width="200" height="200" as="geometry" />
        </mxCell>
        <mxCell id="signin_vm" value="SignInViewModel&#xa;+ signInWithEmail(credentials)&#xa;+ emits UiEvent" style="rounded=1;whiteSpace=wrap;html=1;" vertex="1" parent="vm_layer">
          <mxGeometry x="10" y="40" width="180" height="60" as="geometry" />
        </mxCell>
        <mxCell id="signup_vm" value="SignUpViewModel&#xa;+ registerUser(user, credentials)&#xa;+ emits UiEvent" style="rounded=1;whiteSpace=wrap;html=1;" vertex="1" parent="vm_layer">
          <mxGeometry x="10" y="110" width="180" height="60" as="geometry" />
        </mxCell>
        <mxCell id="google_auth_vm" value="GoogleAuthViewModel&#xa;+ handleGoogleSignInResult(intentData)&#xa;+ emits UiEvent" style="rounded=1;whiteSpace=wrap;html=1;" vertex="1" parent="vm_layer">
          <mxGeometry x="10" y="180" width="180" height="60" as="geometry" />
        </mxCell>
        <mxCell id="splash_vm" value="SplashViewModel&#xa;+ checkSession()&#xa;+ authState: StateFlow" style="rounded=1;whiteSpace=wrap;html=1;" vertex="1" parent="vm_layer">
          <mxGeometry x="10" y="250" width="180" height="60" as="geometry" />
        </mxCell>

        <!-- Domain Layer -->
        <mxCell id="domain_layer" value="Domain Layer" style="swimlane;fontStyle=1;align=center;verticalAlign=top;childLayout=stackLayout;horizontal=1;startSize=30;horizontalStack=0;resizeParent=1;resizeParentMax=0;resizeLast=0;collapsible=1;marginBottom=0;" vertex="1" parent="1">
          <mxGeometry x="40" y="280" width="200" height="200" as="geometry" />
        </mxCell>
        <mxCell id="user" value="User&#xa;- uid&#xa;- name&#xa;- email&#xa;- role" style="rounded=1;whiteSpace=wrap;html=1;" vertex="1" parent="domain_layer">
          <mxGeometry x="10" y="40" width="180" height="80" as="geometry" />
        </mxCell>
        <mxCell id="credentials" value="Credentials&#xa;- email&#xa;- password" style="rounded=1;whiteSpace=wrap;html=1;" vertex="1" parent="domain_layer">
          <mxGeometry x="10" y="130" width="180" height="60" as="geometry" />
        </mxCell>

        <!-- Data Layer -->
        <mxCell id="data_layer" value="Data Layer" style="swimlane;fontStyle=1;align=center;verticalAlign=top;childLayout=stackLayout;horizontal=1;startSize=30;horizontalStack=0;resizeParent=1;resizeParentMax=0;resizeLast=0;collapsible=1;marginBottom=0;" vertex="1" parent="1">
          <mxGeometry x="280" y="280" width="200" height="200" as="geometry" />
        </mxCell>
        <mxCell id="auth_repo" value="AuthRepository&#xa;+ signInWithEmail()&#xa;+ signInWithGoogle()&#xa;+ registerUser()&#xa;+ sendEmailVerification()&#xa;+ isUserRegistered()&#xa;+ getCurrentUserUid()&#xa;+ getCurrentUser()&#xa;+ logout()" style="shape=interface;whiteSpace=wrap;html=1;" vertex="1" parent="data_layer">
          <mxGeometry x="10" y="40" width="180" height="160" as="geometry" />
        </mxCell>
        <mxCell id="auth_repo_impl" value="AuthRepositoryImpl&#xa;- firebaseAuth&#xa;- dataStore&#xa;- userDao" style="rounded=1;whiteSpace=wrap;html=1;" vertex="1" parent="data_layer">
          <mxGeometry x="10" y="210" width="180" height="60" as="geometry" />
        </mxCell>

        <!-- Services Layer -->
        <mxCell id="services_layer" value="Services Layer" style="swimlane;fontStyle=1;align=center;verticalAlign=top;childLayout=stackLayout;horizontal=1;startSize=30;horizontalStack=0;resizeParent=1;resizeParentMax=0;resizeLast=0;collapsible=1;marginBottom=0;" vertex="1" parent="1">
          <mxGeometry x="520" y="280" width="200" height="200" as="geometry" />
        </mxCell>
        <mxCell id="firebase_auth" value="FirebaseAuth&#xa;+ signInWithEmailAndPassword()&#xa;+ createUserWithEmailAndPassword()&#xa;+ updateProfile()&#xa;+ signOut()" style="rounded=1;whiteSpace=wrap;html=1;" vertex="1" parent="services_layer">
          <mxGeometry x="10" y="40" width="180" height="80" as="geometry" />
        </mxCell>
        <mxCell id="room_ds" value="RoomDataSource&#xa;+ getUser()&#xa;+ saveUser()" style="rounded=1;whiteSpace=wrap;html=1;" vertex="1" parent="services_layer">
          <mxGeometry x="10" y="130" width="180" height="60" as="geometry" />
        </mxCell>
        <mxCell id="user_prefs" value="UserPreferencesManager&#xa;+ saveUid()&#xa;+ getUid()" style="rounded=1;whiteSpace=wrap;html=1;" vertex="1" parent="services_layer">
          <mxGeometry x="10" y="200" width="180" height="60" as="geometry" />
        </mxCell>

        <!-- DI Layer -->
        <mxCell id="di_layer" value="Dependency Injection" style="swimlane;fontStyle=1;align=center;verticalAlign=top;childLayout=stackLayout;horizontal=1;startSize=30;horizontalStack=0;resizeParent=1;resizeParentMax=0;resizeLast=0;collapsible=1;marginBottom=0;" vertex="1" parent="1">
          <mxGeometry x="40" y="520" width="200" height="200" as="geometry" />
        </mxCell>
        <mxCell id="app_module" value="AppModule&#xa;@Provides app-wide dependencies" style="rounded=1;whiteSpace=wrap;html=1;" vertex="1" parent="di_layer">
          <mxGeometry x="10" y="40" width="180" height="60" as="geometry" />
        </mxCell>
        <mxCell id="firebase_module" value="FirebaseModule&#xa;@Provides Firebase services" style="rounded=1;whiteSpace=wrap;html=1;" vertex="1" parent="di_layer">
          <mxGeometry x="10" y="110" width="180" height="60" as="geometry" />
        </mxCell>

        <!-- States Layer -->
        <mxCell id="states_layer" value="States" style="swimlane;fontStyle=1;align=center;verticalAlign=top;childLayout=stackLayout;horizontal=1;startSize=30;horizontalStack=0;resizeParent=1;resizeParentMax=0;resizeLast=0;collapsible=1;marginBottom=0;" vertex="1" parent="1">
          <mxGeometry x="280" y="520" width="200" height="200" as="geometry" />
        </mxCell>
        <mxCell id="signin_state" value="SignInUiState&#xa;- email&#xa;- password&#xa;- isLoading&#xa;- errorMessage" style="rounded=1;whiteSpace=wrap;html=1;" vertex="1" parent="states_layer">
          <mxGeometry x="10" y="40" width="180" height="80" as="geometry" />
        </mxCell>
        <mxCell id="signup_state" value="SignUpUiState&#xa;- name&#xa;- email&#xa;- password&#xa;- isLoading&#xa;- errorMessage&#xa;- telephone&#xa;- rgpdAccepted" style="rounded=1;whiteSpace=wrap;html=1;" vertex="1" parent="states_layer">
          <mxGeometry x="10" y="130" width="180" height="100" as="geometry" />
        </mxCell>
        <mxCell id="auth_state" value="AuthState&#xa;+ Idle&#xa;+ Loading&#xa;+ SignInSuccess&#xa;+ SignUpRedirect&#xa;+ SignUpSuccess&#xa;+ Error" style="rounded=1;whiteSpace=wrap;html=1;" vertex="1" parent="states_layer">
          <mxGeometry x="10" y="240" width="180" height="100" as="geometry" />
        </mxCell>

        <!-- Liens -->
        <!-- UI -> ViewModel -->
        <mxCell id="link1" value="" style="endArrow=classic;html=1;exitX=1;exitY=0.5;exitDx=0;exitDy=0;entryX=0;entryY=0.5;entryDx=0;entryDy=0;" edge="1" parent="1" source="signin_screen" target="signin_vm">
          <mxGeometry width="50" height="50" relative="1" as="geometry">
            <mxPoint x="390" y="420" as="sourcePoint" />
            <mxPoint x="440" y="370" as="targetPoint" />
          </mxGeometry>
        </mxCell>
        <mxCell id="link2" value="" style="endArrow=classic;html=1;exitX=1;exitY=0.5;exitDx=0;exitDy=0;entryX=0;entryY=0.5;entryDx=0;entryDy=0;" edge="1" parent="1" source="signup_screen" target="signup_vm">
          <mxGeometry width="50" height="50" relative="1" as="geometry">
            <mxPoint x="390" y="420" as="sourcePoint" />
            <mxPoint x="440" y="370" as="targetPoint" />
          </mxGeometry>
        </mxCell>

        <!-- ViewModel -> States -->
        <mxCell id="link3" value="" style="endArrow=classic;html=1;exitX=1;exitY=0.5;exitDx=0;exitDy=0;entryX=0;entryY=0.5;entryDx=0;entryDy=0;" edge="1" parent="1" source="signin_vm" target="signin_state">
          <mxGeometry width="50" height="50" relative="1" as="geometry">
            <mxPoint x="390" y="420" as="sourcePoint" />
            <mxPoint x="440" y="370" as="targetPoint" />
          </mxGeometry>
        </mxCell>

        <!-- Repository Implementation -->
        <mxCell id="link4" value="" style="endArrow=open;html=1;exitX=0.5;exitY=1;exitDx=0;exitDy=0;entryX=0.5;entryY=0;entryDx=0;entryDy=0;dashed=1;" edge="1" parent="1" source="auth_repo_impl" target="auth_repo">
          <mxGeometry width="50" height="50" relative="1" as="geometry">
            <mxPoint x="390" y="420" as="sourcePoint" />
            <mxPoint x="440" y="370" as="targetPoint" />
          </mxGeometry>
        </mxCell>

        <!-- DI -> Services -->
        <mxCell id="link5" value="" style="endArrow=classic;html=1;exitX=1;exitY=0.5;exitDx=0;exitDy=0;entryX=0;entryY=0.5;entryDx=0;entryDy=0;" edge="1" parent="1" source="app_module" target="firebase_auth">
          <mxGeometry width="50" height="50" relative="1" as="geometry">
            <mxPoint x="390" y="420" as="sourcePoint" />
            <mxPoint x="440" y="370" as="targetPoint" />
          </mxGeometry>
        </mxCell>

      </root>
    </mxGraphModel>
  </diagram>
</mxfile> 